<svg width="455" height="209" viewBox="0 0 455 209" fill="none" xmlns="http://www.w3.org/2000/svg">
<path d="M330.547 99.0938H301.461V207.942H330.547V99.0938Z" fill="#FFA800"/>
<path fill-rule="evenodd" clip-rule="evenodd" d="M300.961 99.0938C300.961 98.8176 301.185 98.5938 301.461 98.5938H330.547C330.823 98.5938 331.047 98.8176 331.047 99.0938V207.942C331.047 208.218 330.823 208.442 330.547 208.442H301.461C301.185 208.442 300.961 208.218 300.961 207.942V99.0938ZM301.961 99.5938V207.442H330.047V99.5938H301.961Z" fill="black"/>
<path d="M330.547 99.0853H301.461L276.087 87.7955L257.055 79.3281L281.915 80.0612L330.547 99.0853Z" fill="#FFA800"/>
<path fill-rule="evenodd" clip-rule="evenodd" d="M256.567 79.217C256.62 78.9841 256.831 78.8213 257.069 78.8283L281.93 79.5614C281.987 79.5631 282.044 79.5746 282.098 79.5955L330.729 98.6197C330.953 98.7073 331.083 98.9418 331.039 99.178C330.994 99.4143 330.788 99.5853 330.547 99.5853H301.461C301.391 99.5853 301.322 99.5706 301.258 99.5422L275.884 88.2523L275.884 88.2523L256.852 79.785C256.633 79.6879 256.514 79.4499 256.567 79.217ZM259.576 79.9027L276.291 87.3387L276.291 87.3387L301.567 98.5853H327.897L281.814 80.5584L259.576 79.9027Z" fill="black"/>
<path d="M301.461 173.356V207.941L275.421 186.861V154.497L256.578 139.914L284.098 161.074L301.461 173.356Z" fill="#FDC500"/>
<path fill-rule="evenodd" clip-rule="evenodd" d="M256.182 139.609C256.351 139.39 256.664 139.35 256.883 139.518L256.884 139.519L284.395 160.672L301.75 172.947C301.882 173.041 301.961 173.193 301.961 173.356V207.941C301.961 208.134 301.85 208.31 301.676 208.393C301.502 208.476 301.296 208.451 301.146 208.33L275.106 187.25C274.989 187.155 274.921 187.012 274.921 186.861V154.742L256.273 140.31L256.272 140.309C256.054 140.141 256.014 139.827 256.182 139.609ZM275.921 155.417V186.623L300.961 206.893V173.614L283.809 161.482C283.804 161.479 283.799 161.475 283.793 161.471L275.921 155.417Z" fill="black"/>
<path d="M301.459 99.0945V134.097L284.096 122.612L276.086 117.516V87.8047L301.459 99.0945Z" fill="#FDC500"/>
<path fill-rule="evenodd" clip-rule="evenodd" d="M275.814 87.3854C275.956 87.2932 276.135 87.279 276.289 87.3479L301.662 98.6377C301.843 98.718 301.959 98.897 301.959 99.0945V134.097C301.959 134.281 301.858 134.45 301.696 134.538C301.534 134.625 301.337 134.616 301.183 134.514L283.824 123.031L275.818 117.938C275.673 117.846 275.586 117.687 275.586 117.516V87.8047C275.586 87.6354 275.672 87.4776 275.814 87.3854ZM276.586 88.5744V117.241L284.372 122.195L300.959 133.167V99.4193L276.586 88.5744Z" fill="black"/>
<path fill-rule="evenodd" clip-rule="evenodd" d="M300.961 134.5C300.961 134.224 301.185 134 301.461 134H330.547C330.823 134 331.047 134.224 331.047 134.5V173.352C331.047 173.628 330.823 173.852 330.547 173.852H301.461C301.185 173.852 300.961 173.628 300.961 173.352V134.5ZM301.961 135V172.852H330.047V135H301.961Z" fill="black"/>
<path d="M275.419 154.497V186.861L256.328 171.408L256.577 139.914L275.419 154.497Z" fill="#FDC500"/>
<path fill-rule="evenodd" clip-rule="evenodd" d="M256.358 139.464C256.529 139.381 256.733 139.402 256.883 139.519L275.725 154.102C275.848 154.196 275.919 154.342 275.919 154.497V186.861C275.919 187.054 275.809 187.23 275.635 187.313C275.461 187.396 275.255 187.371 275.105 187.25L256.014 171.796C255.895 171.7 255.827 171.556 255.828 171.404L256.077 139.91C256.078 139.72 256.188 139.547 256.358 139.464ZM257.069 140.927L256.83 171.171L274.919 185.813V154.742L257.069 140.927Z" fill="black"/>
<path d="M301.461 134.087V173.346L284.098 161.065V122.602L301.461 134.087Z" fill="#FDC500"/>
<path fill-rule="evenodd" clip-rule="evenodd" d="M283.861 122.161C284.023 122.074 284.22 122.083 284.374 122.185L301.736 133.67C301.876 133.762 301.961 133.919 301.961 134.087V173.346C301.961 173.533 301.856 173.704 301.69 173.79C301.524 173.876 301.324 173.862 301.172 173.754L283.809 161.473C283.676 161.379 283.598 161.227 283.598 161.065V122.602C283.598 122.417 283.699 122.248 283.861 122.161ZM284.598 123.532V160.806L300.961 172.38V134.356L284.598 123.532Z" fill="black"/>
<path d="M284.098 122.599V161.062L256.578 139.902L256.691 125.462L256.859 105.273L284.098 122.599Z" fill="#FDC500"/>
<path fill-rule="evenodd" clip-rule="evenodd" d="M256.62 104.834C256.78 104.747 256.974 104.754 257.127 104.852L284.367 122.177C284.511 122.269 284.598 122.428 284.598 122.599V161.062C284.598 161.253 284.49 161.426 284.319 161.511C284.148 161.595 283.944 161.575 283.793 161.458L256.273 140.298C256.149 140.203 256.077 140.055 256.078 139.898L256.359 105.269C256.36 105.088 256.46 104.921 256.62 104.834ZM257.351 106.179L257.08 139.657L283.598 160.047V122.873L257.351 106.179Z" fill="black"/>
<path fill-rule="evenodd" clip-rule="evenodd" d="M256.662 103.78C256.848 103.703 257.062 103.745 257.205 103.887L257.207 103.888C257.303 103.983 257.356 104.113 257.355 104.248L257.187 125.471C257.185 125.747 256.96 125.97 256.684 125.967C256.407 125.965 256.185 125.74 256.188 125.463L256.353 104.238C256.355 104.037 256.477 103.857 256.662 103.78Z" fill="black"/>
<path d="M276.088 87.7955V117.507L256.852 105.264L257.055 79.3281L276.088 87.7955Z" fill="#FDC500"/>
<path fill-rule="evenodd" clip-rule="evenodd" d="M256.784 78.9078C256.926 78.8165 257.104 78.8028 257.258 78.8713L276.291 87.3387C276.472 87.419 276.588 87.598 276.588 87.7955V117.507C276.588 117.689 276.488 117.857 276.329 117.945C276.169 118.033 275.973 118.026 275.819 117.928L256.583 105.686C256.438 105.594 256.35 105.433 256.352 105.26L256.555 79.3242C256.556 79.1556 256.643 78.9991 256.784 78.9078ZM257.549 80.0951L257.354 104.991L275.588 116.596V88.1203L257.549 80.0951Z" fill="black"/>
<path fill-rule="evenodd" clip-rule="evenodd" d="M257.057 78.8281C257.333 78.8303 257.556 79.0559 257.553 79.3321L257.357 104.247C257.356 104.448 257.234 104.628 257.048 104.705C256.863 104.782 256.649 104.74 256.506 104.598L256.504 104.597C256.408 104.502 256.354 104.372 256.355 104.237L256.553 79.3242C256.556 79.0481 256.781 78.826 257.057 78.8281Z" fill="black"/>
<path fill-rule="evenodd" clip-rule="evenodd" d="M301.685 88.3047H276.086V87.3047H301.685V88.3047Z" fill="black"/>
<path d="M377.917 163.678V172.129C377.917 172.881 377.306 173.595 376.209 174.239C374.742 175.097 372.409 175.828 369.503 176.352H369.5C366.489 176.893 362.864 177.21 358.96 177.21C355.055 177.21 351.431 176.893 348.417 176.352H348.414C345.51 175.828 343.177 175.097 341.71 174.239C340.615 173.595 340 172.881 340 172.129V163.678C340 164.43 340.613 165.144 341.71 165.788C343.172 166.649 345.51 167.377 348.409 167.901C351.426 168.444 355.053 168.762 358.96 168.762C362.866 168.762 366.493 168.444 369.507 167.901C372.409 167.377 374.745 166.649 376.209 165.788C377.304 165.144 377.917 164.43 377.917 163.678Z" fill="#F3E033" stroke="black" stroke-miterlimit="10"/>
<path d="M377.917 172.131V180.577C377.917 181.332 377.306 182.046 376.209 182.69C374.745 183.55 372.409 184.281 369.507 184.8C366.493 185.343 362.866 185.66 358.96 185.66C355.053 185.66 351.426 185.343 348.409 184.8C345.512 184.278 343.172 183.55 341.71 182.69C340.615 182.046 340 181.332 340 180.577V172.131C340 172.883 340.613 173.597 341.71 174.241C343.177 175.099 345.51 175.83 348.414 176.354H348.417C351.431 176.895 355.053 177.212 358.96 177.212C362.866 177.212 366.489 176.895 369.5 176.354H369.503C372.409 175.83 374.742 175.099 376.209 174.241C377.304 173.597 377.917 172.883 377.917 172.131Z" fill="#F3E033" stroke="black" stroke-miterlimit="10"/>
<path d="M377.917 180.577V189.028C377.917 189.782 377.306 190.496 376.209 191.14C374.745 191.998 372.409 192.729 369.507 193.251C366.493 193.794 362.866 194.111 358.96 194.111C355.053 194.111 351.426 193.794 348.409 193.251C345.512 192.729 343.172 191.998 341.71 191.14C340.615 190.496 340 189.782 340 189.028V180.577C340 181.332 340.613 182.045 341.71 182.69C343.172 183.55 345.51 184.281 348.409 184.8C351.426 185.343 355.053 185.66 358.96 185.66C362.866 185.66 366.493 185.343 369.507 184.8C372.409 184.278 374.745 183.55 376.209 182.69C377.304 182.045 377.917 181.332 377.917 180.577Z" fill="#F3E033" stroke="black" stroke-miterlimit="10"/>
<path d="M377.916 189.03V197.478C377.916 198.233 377.305 198.947 376.205 199.591C374.741 200.451 372.408 201.182 369.509 201.701C366.495 202.244 362.868 202.562 358.961 202.562C355.054 202.562 351.427 202.244 348.411 201.701C345.513 201.18 343.181 200.451 341.716 199.591C340.617 198.947 340.004 198.233 340.004 197.478V189.03C340.004 189.784 340.617 190.498 341.714 191.142C343.176 192.001 345.513 192.731 348.413 193.253C351.429 193.796 355.056 194.113 358.963 194.113C362.87 194.113 366.497 193.796 369.511 193.253C372.413 192.731 374.748 192.001 376.213 191.142C377.307 190.498 377.92 189.784 377.92 189.03H377.916Z" fill="#F3E033" stroke="black" stroke-miterlimit="10"/>
<path d="M377.917 163.678C377.917 164.431 377.306 165.144 376.209 165.789C374.745 166.649 372.409 167.377 369.507 167.901C366.493 168.444 362.866 168.762 358.96 168.762C355.053 168.762 351.426 168.444 348.409 167.901C345.512 167.377 343.172 166.649 341.71 165.789C340.615 165.144 340 164.431 340 163.678C340 163.63 340.002 163.582 340.012 163.536C340.292 160.794 348.665 158.595 358.96 158.595C369.254 158.595 377.63 160.794 377.907 163.536C377.912 163.582 377.914 163.63 377.914 163.678H377.917Z" fill="#F3E033" stroke="black" stroke-miterlimit="10"/>
<path d="M415.831 163.678V172.129C415.831 172.881 415.221 173.595 414.124 174.239C412.657 175.097 410.324 175.828 407.417 176.352H407.415C404.403 176.893 400.779 177.21 396.874 177.21C392.97 177.21 389.345 176.893 386.331 176.352H386.329C383.424 175.828 381.092 175.097 379.625 174.239C378.53 173.595 377.915 172.881 377.915 172.129V163.678C377.915 164.43 378.528 165.144 379.625 165.788C381.087 166.649 383.424 167.377 386.324 167.901C389.34 168.444 392.967 168.762 396.874 168.762C400.781 168.762 404.408 168.444 407.422 167.901C410.324 167.377 412.659 166.649 414.124 165.788C415.218 165.144 415.831 164.43 415.831 163.678Z" fill="#F3E033" stroke="black" stroke-miterlimit="10"/>
<path d="M415.831 172.131V180.577C415.831 181.332 415.221 182.046 414.124 182.69C412.659 183.55 410.324 184.281 407.422 184.8C404.408 185.343 400.781 185.66 396.874 185.66C392.967 185.66 389.34 185.343 386.324 184.8C383.427 184.278 381.087 183.55 379.625 182.69C378.53 182.046 377.915 181.332 377.915 180.577V172.131C377.915 172.883 378.528 173.597 379.625 174.241C381.092 175.099 383.424 175.83 386.329 176.354H386.331C389.345 176.895 392.967 177.212 396.874 177.212C400.781 177.212 404.403 176.895 407.415 176.354H407.417C410.324 175.83 412.657 175.099 414.124 174.241C415.218 173.597 415.831 172.883 415.831 172.131Z" fill="#F3E033" stroke="black" stroke-miterlimit="10"/>
<path d="M415.831 180.577V189.028C415.831 189.782 415.221 190.496 414.124 191.14C412.659 191.998 410.324 192.729 407.422 193.251C404.408 193.794 400.781 194.111 396.874 194.111C392.967 194.111 389.34 193.794 386.324 193.251C383.427 192.729 381.087 191.998 379.625 191.14C378.53 190.496 377.915 189.782 377.915 189.028V180.577C377.915 181.332 378.528 182.045 379.625 182.69C381.087 183.55 383.424 184.281 386.324 184.8C389.34 185.343 392.967 185.66 396.874 185.66C400.781 185.66 404.408 185.343 407.422 184.8C410.324 184.278 412.659 183.55 414.124 182.69C415.218 182.045 415.831 181.332 415.831 180.577Z" fill="#F3E033" stroke="black" stroke-miterlimit="10"/>
<path d="M415.83 189.03V197.478C415.83 198.233 415.22 198.947 414.12 199.591C412.656 200.451 410.323 201.182 407.423 201.701C404.409 202.244 400.782 202.562 396.875 202.562C392.969 202.562 389.342 202.244 386.325 201.701C383.428 201.18 381.095 200.451 379.631 199.591C378.531 198.947 377.918 198.233 377.918 197.478V189.03C377.918 189.784 378.531 190.498 379.628 191.142C381.09 192.001 383.428 192.731 386.328 193.253C389.344 193.796 392.971 194.113 396.878 194.113C400.785 194.113 404.412 193.796 407.426 193.253C410.328 192.731 412.663 192.001 414.127 191.142C415.222 190.498 415.835 189.784 415.835 189.03H415.83Z" fill="#F3E033" stroke="black" stroke-miterlimit="10"/>
<path d="M415.831 163.678C415.831 164.431 415.221 165.144 414.124 165.789C412.659 166.649 410.324 167.377 407.422 167.901C404.408 168.444 400.781 168.762 396.874 168.762C392.967 168.762 389.34 168.444 386.324 167.901C383.427 167.377 381.087 166.649 379.625 165.789C378.53 165.144 377.915 164.431 377.915 163.678C377.915 163.63 377.917 163.582 377.927 163.536C378.206 160.794 386.579 158.595 396.874 158.595C407.169 158.595 415.544 160.794 415.822 163.536C415.827 163.582 415.829 163.63 415.829 163.678H415.831Z" fill="#F3E033" stroke="black" stroke-miterlimit="10"/>
<path d="M396.874 167.318C405.69 167.318 412.837 165.625 412.837 163.537C412.837 161.449 405.69 159.756 396.874 159.756C388.058 159.756 380.911 161.449 380.911 163.537C380.911 165.625 388.058 167.318 396.874 167.318Z" fill="#F3E033"/>
<path d="M412.831 163.537C412.831 165.626 405.684 167.318 396.869 167.318C388.053 167.318 380.906 165.626 380.906 163.537C380.906 161.448 388.053 159.756 396.869 159.756C405.684 159.756 412.831 161.448 412.831 163.537Z" stroke="black" stroke-miterlimit="10"/>
<path d="M415.831 129.881V138.331C415.831 139.084 415.221 139.798 414.124 140.442C412.657 141.3 410.324 142.03 407.417 142.554H407.415C404.403 143.095 400.779 143.413 396.874 143.413C392.97 143.413 389.345 143.095 386.331 142.554H386.329C383.424 142.03 381.092 141.3 379.625 140.442C378.53 139.798 377.915 139.084 377.915 138.331V129.881C377.915 130.633 378.528 131.347 379.625 131.991C381.087 132.851 383.424 133.58 386.324 134.104C389.34 134.647 392.967 134.964 396.874 134.964C400.781 134.964 404.408 134.647 407.422 134.104C410.324 133.58 412.659 132.851 414.124 131.991C415.218 131.347 415.831 130.633 415.831 129.881Z" fill="#F3E033" stroke="black" stroke-miterlimit="10"/>
<path d="M415.831 138.334V146.78C415.831 147.534 415.221 148.248 414.124 148.892C412.659 149.753 410.324 150.483 407.422 151.003C404.408 151.546 400.781 151.863 396.874 151.863C392.967 151.863 389.34 151.546 386.324 151.003C383.427 150.481 381.087 149.753 379.625 148.892C378.53 148.248 377.915 147.534 377.915 146.78V138.334C377.915 139.086 378.528 139.8 379.625 140.444C381.092 141.302 383.424 142.033 386.329 142.557H386.331C389.345 143.097 392.967 143.415 396.874 143.415C400.781 143.415 404.403 143.097 407.415 142.557H407.417C410.324 142.033 412.657 141.302 414.124 140.444C415.218 139.8 415.831 139.086 415.831 138.334Z" fill="#F3E033" stroke="black" stroke-miterlimit="10"/>
<path d="M415.831 146.779V155.23C415.831 155.985 415.221 156.699 414.124 157.343C412.659 158.201 410.324 158.932 407.422 159.453C404.408 159.996 400.781 160.314 396.874 160.314C392.967 160.314 389.34 159.996 386.324 159.453C383.427 158.932 381.087 158.201 379.625 157.343C378.53 156.699 377.915 155.985 377.915 155.23V146.779C377.915 147.534 378.528 148.248 379.625 148.892C381.087 149.753 383.424 150.483 386.324 151.002C389.34 151.546 392.967 151.863 396.874 151.863C400.781 151.863 404.408 151.546 407.422 151.002C410.324 150.481 412.659 149.753 414.124 148.892C415.218 148.248 415.831 147.534 415.831 146.779Z" fill="#F3E033" stroke="black" stroke-miterlimit="10"/>
<path d="M415.83 155.232V163.681C415.83 164.435 415.22 165.149 414.12 165.793C412.656 166.654 410.323 167.385 407.423 167.904C404.409 168.447 400.782 168.764 396.875 168.764C392.969 168.764 389.342 168.447 386.325 167.904C383.428 167.382 381.095 166.654 379.631 165.793C378.531 165.149 377.918 164.435 377.918 163.681V155.232C377.918 155.987 378.531 156.701 379.628 157.345C381.09 158.203 383.428 158.934 386.328 159.455C389.344 159.999 392.971 160.316 396.878 160.316C400.785 160.316 404.412 159.999 407.426 159.455C410.328 158.934 412.663 158.203 414.127 157.345C415.222 156.701 415.835 155.987 415.835 155.232H415.83Z" fill="#F3E033" stroke="black" stroke-miterlimit="10"/>
<path d="M415.831 129.881C415.831 130.633 415.221 131.347 414.124 131.991C412.659 132.852 410.324 133.58 407.422 134.104C404.408 134.647 400.781 134.964 396.874 134.964C392.967 134.964 389.34 134.647 386.324 134.104C383.427 133.58 381.087 132.852 379.625 131.991C378.53 131.347 377.915 130.633 377.915 129.881C377.915 129.833 377.917 129.785 377.927 129.739C378.206 126.997 386.579 124.797 396.874 124.797C407.169 124.797 415.544 126.997 415.822 129.739C415.827 129.785 415.829 129.833 415.829 129.881H415.831Z" fill="#F3E033" stroke="black" stroke-miterlimit="10"/>
<path d="M453.748 163.678V172.129C453.748 172.881 453.137 173.595 452.04 174.239C450.573 175.097 448.24 175.828 445.333 176.352H445.331C442.319 176.893 438.695 177.21 434.791 177.21C430.886 177.21 427.262 176.893 424.248 176.352H424.245C421.341 175.828 419.008 175.097 417.541 174.239C416.446 173.595 415.831 172.881 415.831 172.129V163.678C415.831 164.43 416.444 165.144 417.541 165.788C419.003 166.649 421.341 167.377 424.24 167.901C427.257 168.444 430.884 168.762 434.791 168.762C438.697 168.762 442.324 168.444 445.338 167.901C448.24 167.377 450.576 166.649 452.04 165.788C453.135 165.144 453.748 164.43 453.748 163.678Z" fill="#F3E033" stroke="black" stroke-miterlimit="10"/>
<path d="M453.748 172.131V180.577C453.748 181.332 453.137 182.046 452.04 182.69C450.576 183.55 448.24 184.281 445.338 184.8C442.324 185.343 438.697 185.66 434.791 185.66C430.884 185.66 427.257 185.343 424.24 184.8C421.343 184.278 419.003 183.55 417.541 182.69C416.446 182.046 415.831 181.332 415.831 180.577V172.131C415.831 172.883 416.444 173.597 417.541 174.241C419.008 175.099 421.341 175.83 424.245 176.354H424.248C427.262 176.895 430.884 177.212 434.791 177.212C438.697 177.212 442.319 176.895 445.331 176.354H445.333C448.24 175.83 450.573 175.099 452.04 174.241C453.135 173.597 453.748 172.883 453.748 172.131Z" fill="#F3E033" stroke="black" stroke-miterlimit="10"/>
<path d="M453.748 180.577V189.028C453.748 189.782 453.137 190.496 452.04 191.14C450.576 191.998 448.24 192.729 445.338 193.251C442.324 193.794 438.697 194.111 434.791 194.111C430.884 194.111 427.257 193.794 424.24 193.251C421.343 192.729 419.003 191.998 417.541 191.14C416.446 190.496 415.831 189.782 415.831 189.028V180.577C415.831 181.332 416.444 182.045 417.541 182.69C419.003 183.55 421.341 184.281 424.24 184.8C427.257 185.343 430.884 185.66 434.791 185.66C438.697 185.66 442.324 185.343 445.338 184.8C448.24 184.278 450.576 183.55 452.04 182.69C453.135 182.045 453.748 181.332 453.748 180.577Z" fill="#F3E033" stroke="black" stroke-miterlimit="10"/>
<path d="M453.75 189.03V197.478C453.75 198.233 453.14 198.947 452.04 199.591C450.576 200.451 448.243 201.182 445.343 201.701C442.329 202.244 438.702 202.562 434.795 202.562C430.889 202.562 427.262 202.244 424.245 201.701C421.348 201.18 419.015 200.451 417.551 199.591C416.451 198.947 415.838 198.233 415.838 197.478V189.03C415.838 189.784 416.451 190.498 417.548 191.142C419.01 192.001 421.348 192.731 424.248 193.253C427.264 193.796 430.891 194.113 434.798 194.113C438.704 194.113 442.331 193.796 445.345 193.253C448.248 192.731 450.583 192.001 452.047 191.142C453.142 190.498 453.755 189.784 453.755 189.03H453.75Z" fill="#F3E033" stroke="black" stroke-miterlimit="10"/>
<path d="M453.748 163.678C453.748 164.431 453.137 165.144 452.04 165.789C450.576 166.649 448.24 167.377 445.338 167.901C442.324 168.444 438.697 168.762 434.791 168.762C430.884 168.762 427.257 168.444 424.24 167.901C421.343 167.377 419.003 166.649 417.541 165.789C416.446 165.144 415.831 164.431 415.831 163.678C415.831 163.63 415.833 163.582 415.843 163.536C416.123 160.794 424.496 158.595 434.791 158.595C445.085 158.595 453.461 160.794 453.738 163.536C453.743 163.582 453.745 163.63 453.745 163.678H453.748Z" fill="#F3E033" stroke="black" stroke-miterlimit="10"/>
<path d="M434.789 167.318C443.605 167.318 450.751 165.625 450.751 163.537C450.751 161.449 443.605 159.756 434.789 159.756C425.973 159.756 418.826 161.449 418.826 163.537C418.826 165.625 425.973 167.318 434.789 167.318Z" fill="#F3E033"/>
<path d="M450.751 163.537C450.751 165.626 443.604 167.318 434.789 167.318C425.973 167.318 418.826 165.626 418.826 163.537C418.826 161.448 425.973 159.756 434.789 159.756C443.604 159.756 450.751 161.448 450.751 163.537Z" stroke="black" stroke-miterlimit="10"/>
<path d="M453.748 129.881V138.331C453.748 139.084 453.137 139.798 452.04 140.442C450.573 141.3 448.24 142.03 445.333 142.554H445.331C442.319 143.095 438.695 143.413 434.791 143.413C430.886 143.413 427.262 143.095 424.248 142.554H424.245C421.341 142.03 419.008 141.3 417.541 140.442C416.446 139.798 415.831 139.084 415.831 138.331V129.881C415.831 130.633 416.444 131.347 417.541 131.991C419.003 132.851 421.341 133.58 424.24 134.104C427.257 134.647 430.884 134.964 434.791 134.964C438.697 134.964 442.324 134.647 445.338 134.104C448.24 133.58 450.576 132.851 452.04 131.991C453.135 131.347 453.748 130.633 453.748 129.881Z" fill="#F3E033" stroke="black" stroke-miterlimit="10"/>
<path d="M453.748 138.334V146.78C453.748 147.534 453.137 148.248 452.04 148.892C450.576 149.753 448.24 150.483 445.338 151.003C442.324 151.546 438.697 151.863 434.791 151.863C430.884 151.863 427.257 151.546 424.24 151.003C421.343 150.481 419.003 149.753 417.541 148.892C416.446 148.248 415.831 147.534 415.831 146.78V138.334C415.831 139.086 416.444 139.8 417.541 140.444C419.008 141.302 421.341 142.033 424.245 142.557H424.248C427.262 143.097 430.884 143.415 434.791 143.415C438.697 143.415 442.319 143.097 445.331 142.557H445.333C448.24 142.033 450.573 141.302 452.04 140.444C453.135 139.8 453.748 139.086 453.748 138.334Z" fill="#F3E033" stroke="black" stroke-miterlimit="10"/>
<path d="M453.748 146.779V155.23C453.748 155.985 453.137 156.699 452.04 157.343C450.576 158.201 448.24 158.932 445.338 159.453C442.324 159.996 438.697 160.314 434.791 160.314C430.884 160.314 427.257 159.996 424.24 159.453C421.343 158.932 419.003 158.201 417.541 157.343C416.446 156.699 415.831 155.985 415.831 155.23V146.779C415.831 147.534 416.444 148.248 417.541 148.892C419.003 149.753 421.341 150.483 424.24 151.002C427.257 151.546 430.884 151.863 434.791 151.863C438.697 151.863 442.324 151.546 445.338 151.002C448.24 150.481 450.576 149.753 452.04 148.892C453.135 148.248 453.748 147.534 453.748 146.779Z" fill="#F3E033" stroke="black" stroke-miterlimit="10"/>
<path d="M453.75 155.232V163.681C453.75 164.435 453.14 165.149 452.04 165.793C450.576 166.654 448.243 167.385 445.343 167.904C442.329 168.447 438.702 168.764 434.795 168.764C430.889 168.764 427.262 168.447 424.245 167.904C421.348 167.382 419.015 166.654 417.551 165.793C416.451 165.149 415.838 164.435 415.838 163.681V155.232C415.838 155.987 416.451 156.701 417.548 157.345C419.01 158.203 421.348 158.934 424.248 159.455C427.264 159.999 430.891 160.316 434.798 160.316C438.704 160.316 442.331 159.999 445.345 159.455C448.248 158.934 450.583 158.203 452.047 157.345C453.142 156.701 453.755 155.987 453.755 155.232H453.75Z" fill="#F3E033" stroke="black" stroke-miterlimit="10"/>
<path d="M453.748 129.881C453.748 130.633 453.137 131.347 452.04 131.991C450.576 132.852 448.24 133.58 445.338 134.104C442.324 134.647 438.697 134.964 434.791 134.964C430.884 134.964 427.257 134.647 424.24 134.104C421.343 133.58 419.003 132.852 417.541 131.991C416.446 131.347 415.831 130.633 415.831 129.881C415.831 129.833 415.833 129.785 415.843 129.739C416.123 126.997 424.496 124.797 434.791 124.797C445.085 124.797 453.461 126.997 453.738 129.739C453.743 129.785 453.745 129.833 453.745 129.881H453.748Z" fill="#F3E033" stroke="black" stroke-miterlimit="10"/>
<path d="M434.789 133.52C443.605 133.52 450.751 131.828 450.751 129.74C450.751 127.652 443.605 125.959 434.789 125.959C425.973 125.959 418.826 127.652 418.826 129.74C418.826 131.828 425.973 133.52 434.789 133.52Z" fill="#F3E033"/>
<path d="M434.789 133.52C443.605 133.52 450.751 131.828 450.751 129.74C450.751 127.652 443.605 125.959 434.789 125.959C425.973 125.959 418.826 127.652 418.826 129.74C418.826 131.828 425.973 133.52 434.789 133.52Z" stroke="black" stroke-miterlimit="10"/>
<path d="M453.748 96.0761V104.527C453.748 105.279 453.137 105.993 452.04 106.637C450.573 107.495 448.24 108.226 445.333 108.75H445.331C442.319 109.291 438.695 109.608 434.791 109.608C430.886 109.608 427.262 109.291 424.248 108.75H424.245C421.341 108.226 419.008 107.495 417.541 106.637C416.446 105.993 415.831 105.279 415.831 104.527V96.0761C415.831 96.8284 416.444 97.5422 417.541 98.1864C419.003 99.0468 421.341 99.7751 424.24 100.299C427.257 100.842 430.884 101.16 434.791 101.16C438.697 101.16 442.324 100.842 445.338 100.299C448.24 99.7751 450.576 99.0468 452.04 98.1864C453.135 97.5422 453.748 96.8284 453.748 96.0761Z" fill="#F3E033" stroke="black" stroke-miterlimit="10"/>
<path d="M453.748 104.529V112.975C453.748 113.73 453.137 114.444 452.04 115.088C450.576 115.948 448.24 116.679 445.338 117.198C442.324 117.741 438.697 118.058 434.791 118.058C430.884 118.058 427.257 117.741 424.24 117.198C421.343 116.676 419.003 115.948 417.541 115.088C416.446 114.444 415.831 113.73 415.831 112.975V104.529C415.831 105.281 416.444 105.995 417.541 106.639C419.008 107.497 421.341 108.228 424.245 108.752H424.248C427.262 109.293 430.884 109.61 434.791 109.61C438.697 109.61 442.319 109.293 445.331 108.752H445.333C448.24 108.228 450.573 107.497 452.04 106.639C453.135 105.995 453.748 105.281 453.748 104.529Z" fill="#F3E033" stroke="black" stroke-miterlimit="10"/>
<path d="M453.748 112.975V121.426C453.748 122.18 453.137 122.894 452.04 123.538C450.576 124.396 448.24 125.127 445.338 125.649C442.324 126.192 438.697 126.509 434.791 126.509C430.884 126.509 427.257 126.192 424.24 125.649C421.343 125.127 419.003 124.396 417.541 123.538C416.446 122.894 415.831 122.18 415.831 121.426V112.975C415.831 113.729 416.444 114.443 417.541 115.087C419.003 115.948 421.341 116.679 424.24 117.198C427.257 117.741 430.884 118.058 434.791 118.058C438.697 118.058 442.324 117.741 445.338 117.198C448.24 116.676 450.576 115.948 452.04 115.087C453.135 114.443 453.748 113.729 453.748 112.975Z" fill="#F3E033" stroke="black" stroke-miterlimit="10"/>
<path d="M453.75 121.428V129.876C453.75 130.631 453.14 131.345 452.04 131.989C450.576 132.849 448.243 133.58 445.343 134.099C442.329 134.642 438.702 134.96 434.795 134.96C430.889 134.96 427.262 134.642 424.245 134.099C421.348 133.578 419.015 132.849 417.551 131.989C416.451 131.345 415.838 130.631 415.838 129.876V121.428C415.838 122.182 416.451 122.896 417.548 123.54C419.01 124.398 421.348 125.129 424.248 125.651C427.264 126.194 430.891 126.511 434.798 126.511C438.704 126.511 442.331 126.194 445.345 125.651C448.248 125.129 450.583 124.398 452.047 123.54C453.142 122.896 453.755 122.182 453.755 121.428H453.75Z" fill="#F3E033" stroke="black" stroke-miterlimit="10"/>
<path d="M453.748 96.0835C453.748 96.8358 453.137 97.5496 452.04 98.1938C450.576 99.0542 448.24 99.7825 445.338 100.306C442.324 100.85 438.697 101.167 434.791 101.167C430.884 101.167 427.257 100.85 424.24 100.306C421.343 99.7825 419.003 99.0542 417.541 98.1938C416.446 97.5496 415.831 96.8358 415.831 96.0835C415.831 96.0354 415.833 95.9873 415.843 95.9416C416.123 93.1992 424.496 91 434.791 91C445.085 91 453.461 93.1992 453.738 95.9416C453.743 95.9873 453.745 96.0354 453.745 96.0835H453.748Z" fill="#F3E033" stroke="black" stroke-miterlimit="10"/>
<path d="M434.787 99.0413C443.174 99.0413 449.974 97.6521 449.974 95.9384C449.974 94.2247 443.174 92.8354 434.787 92.8354C426.4 92.8354 419.6 94.2247 419.6 95.9384C419.6 97.6521 426.4 99.0413 434.787 99.0413Z" fill="#F3E033"/>
<path d="M449.974 95.9384C449.974 97.6521 443.175 99.0413 434.787 99.0413C426.399 99.0413 419.6 97.6521 419.6 95.9384C419.6 94.2247 426.399 92.8354 434.787 92.8354C443.175 92.8354 449.974 94.2247 449.974 95.9384Z" stroke="black" stroke-miterlimit="10"/>
<path d="M396.874 132.846C405.262 132.846 412.061 131.457 412.061 129.743C412.061 128.029 405.262 126.64 396.874 126.64C388.487 126.64 381.688 128.029 381.688 129.743C381.688 131.457 388.487 132.846 396.874 132.846Z" fill="#F3E033"/>
<path d="M396.874 132.846C405.262 132.846 412.061 131.457 412.061 129.743C412.061 128.029 405.262 126.64 396.874 126.64C388.487 126.64 381.688 128.029 381.688 129.743C381.688 131.457 388.487 132.846 396.874 132.846Z" stroke="black" stroke-miterlimit="10"/>
<path d="M358.958 166.78C367.345 166.78 374.145 165.39 374.145 163.677C374.145 161.963 367.345 160.574 358.958 160.574C350.571 160.574 343.771 161.963 343.771 163.677C343.771 165.39 350.571 166.78 358.958 166.78Z" fill="#F3E033"/>
<path d="M374.145 163.677C374.145 165.39 367.346 166.78 358.958 166.78C350.57 166.78 343.771 165.39 343.771 163.677C343.771 161.963 350.57 160.574 358.958 160.574C367.346 160.574 374.145 161.963 374.145 163.677Z" stroke="black" stroke-miterlimit="10"/>
<path d="M253.178 92.5706C250.885 87.9699 243.743 89.0459 241.801 94.4824C242.047 94.1191 242.982 94.5657 252.798 92.4777C252.871 92.4612 252.948 92.4667 253.018 92.4934C253.088 92.5201 253.149 92.5669 253.193 92.6279C253.19 92.6047 253.184 92.5869 253.178 92.5706Z" fill="black"/>
<path d="M253.218 92.6488L253.194 92.6283C253.15 92.5673 253.089 92.5205 253.019 92.4938C252.949 92.4671 252.872 92.4616 252.799 92.4781C242.42 94.6876 241.769 94.0253 241.748 94.6426C241.331 96.2329 241.519 97.9215 242.276 99.3811C243.033 100.841 244.305 101.967 245.845 102.543C247.382 103.025 249.046 102.896 250.49 102.181C251.934 101.466 253.045 100.22 253.592 98.7052C253.955 97.7252 254.109 96.6804 254.044 95.6375C253.98 94.5947 253.698 93.5767 253.218 92.6488Z" fill="white"/>
<path d="M232.125 96.1097C231.29 96.2612 231.644 97.534 232.476 97.3824L239.484 96.1056C240.318 95.954 239.965 94.6812 239.133 94.8328L232.125 96.1097Z" fill="black"/>
<path d="M220.97 124.845C215.935 110.194 206.092 98.9706 191.077 96.0182C186.342 94.9481 181.41 95.125 176.764 96.5316C176.812 96.7802 177.047 98.0106 177.118 98.3766C177.276 99.2082 176.002 99.5619 175.844 98.7289C175.782 98.4052 175.562 97.2581 175.515 97.0082C172.934 98.0651 170.693 99.8083 169.033 102.049C168.405 102.9 167.9 103.835 167.531 104.826C167.819 104.759 176.135 102.939 179.987 102.015C180.082 101.99 180.183 102.004 180.268 102.052C180.353 102.101 180.416 102.18 180.444 102.274C180.741 103.691 181.195 105.071 181.516 106.484C181.539 106.581 181.524 106.682 181.473 106.768C181.421 106.853 181.339 106.915 181.243 106.94C180.767 107.058 177.839 106.077 175.46 106.69C173.756 107.13 171.665 108.705 172.415 110.726C172.902 112.037 174.484 112.459 175.692 112.774C178.23 113.33 180.795 113.754 183.376 114.043C183.438 114.06 183.494 114.093 183.539 114.138C183.584 114.183 183.617 114.239 183.634 114.301C183.685 114.489 183.742 114.675 183.796 114.863C186.004 115.175 188.132 115.906 190.066 117.017C191.443 117.837 192.617 118.957 193.501 120.294C195.863 119.402 198.395 119.052 200.911 119.27C203.891 119.645 206.659 121.014 208.764 123.157C211.599 126.102 213.578 129.763 214.49 133.747C216.607 130.964 218.523 128.011 220.391 125.07C220.424 125.017 220.471 124.974 220.526 124.944C220.581 124.915 220.642 124.9 220.705 124.9C220.767 124.901 220.828 124.918 220.882 124.949C220.936 124.98 220.982 125.025 221.014 125.078C221.009 124.999 220.995 124.92 220.97 124.845Z" fill="white"/>
<path d="M147.188 175.455C143.964 169.309 142.614 162.352 143.306 155.446C139.744 153.855 136.177 152.279 132.645 150.82L132.628 150.81C132.43 150.737 132.265 150.596 132.162 150.411C132.059 150.227 132.026 150.012 132.068 149.805C132.121 149.644 132.215 149.501 132.341 149.388C132.169 148.621 124.694 115.812 124.532 115.093C124.507 114.998 124.52 114.897 124.568 114.811C124.617 114.726 124.697 114.663 124.791 114.635C128.851 113.737 155.517 107.601 155.802 107.534C147.489 99.5331 132.295 98.8558 123.819 108.49C124.067 109.529 124.265 110.402 124.514 111.515C124.698 112.344 123.421 112.695 123.241 111.866C123.216 111.761 122.784 109.862 122.762 109.77C120.477 112.804 118.82 116.263 117.885 119.945C113.574 119.925 109.342 121.101 105.659 123.341C90.4789 132.764 80.7641 155.771 85.2473 173.812C85.7598 176.055 86.7418 178.164 88.1287 180C89.5156 181.836 91.2758 183.358 93.2934 184.464C97.5514 186.829 102.596 188.561 107.444 187.15C111.61 185.781 115.161 182.988 117.474 179.262C120.332 174.892 121.56 169.827 122.55 164.766C123.815 178.528 136.803 194.657 151.423 194.068C155.323 193.963 159.078 192.571 162.103 190.108C155.748 186.265 150.706 182.107 147.188 175.455Z" fill="#FF90E8"/>
<path d="M111.778 202.627C105.278 197.524 97.2499 194.755 88.9855 194.766C80.7212 194.776 72.7006 197.566 66.2134 202.686C65.9403 202.896 66.1806 203.331 66.4756 203.32H111.591C111.671 203.317 111.748 203.288 111.811 203.238C111.873 203.188 111.918 203.12 111.939 203.042C111.96 202.965 111.956 202.883 111.927 202.808C111.898 202.734 111.846 202.67 111.778 202.627Z" fill="black"/>
<path d="M271.498 129.502C268.935 117.664 260.733 110.639 252.653 109.428C243.898 108.12 235.631 112.894 229.869 119.091C226.975 122.242 224.448 125.712 222.336 129.433C222.182 128.851 221.195 125.27 221.016 125.074C220.984 125.02 220.939 124.975 220.885 124.944C220.831 124.913 220.769 124.896 220.707 124.895C220.644 124.894 220.583 124.909 220.528 124.939C220.473 124.969 220.426 125.013 220.393 125.066C218.525 128.013 216.609 130.96 214.492 133.743C215.73 138.408 215.929 142.297 216.837 147.894C218.16 156.055 223.231 157.884 226.721 156.036C226.729 155.937 226.761 155.842 226.814 155.758C226.868 155.675 226.941 155.606 227.027 155.557C229.67 154.034 230.938 151.155 232.001 148.423C232.05 148.256 232.162 148.114 232.313 148.028C232.464 147.942 232.643 147.918 232.812 147.961C232.981 148.008 233.124 148.12 233.21 148.272C233.297 148.425 233.32 148.605 233.273 148.774C232.151 151.662 230.781 154.571 228.173 156.364C238.486 163.865 243.024 170.566 249.252 182.846C251.397 180.458 253.238 177.813 254.733 174.973C255.127 174.219 256.267 174.888 255.873 175.639C254.24 178.735 252.213 181.606 249.842 184.181C249.775 184.263 249.685 184.323 249.584 184.356C249.483 184.388 249.375 184.39 249.273 184.363C246.646 187.27 243.682 189.853 240.444 192.059C235.837 194.979 229.834 195.83 224.33 195.756C216.044 195.644 208.276 193.426 202.093 187.764C196.089 181.961 192.024 174.444 190.456 166.243C189.733 162.167 189.358 158.038 189.334 153.899C182.088 156.555 172.518 159.972 165.146 162.177C164.623 162.333 161.876 163.133 161.447 163.219C161.063 163.242 160.682 163.147 160.354 162.946C159.733 162.687 143.538 155.551 143.3 155.445C142.74 160.637 143.371 165.889 145.144 170.802C146.917 175.714 149.786 180.158 153.533 183.796C156.612 186.577 159.995 189.001 163.617 191.023C171.21 195.521 177.546 198.751 185.02 200.626C198.784 203.968 213.128 204.14 226.969 201.128C233.85 199.584 240.279 196.462 245.748 192.01C257.912 182.37 266.544 168.976 270.3 153.917C272.302 146.041 273.234 137.519 271.498 129.502ZM168.805 168.012C168.974 167.97 169.153 167.994 169.304 168.08C169.455 168.166 169.568 168.307 169.617 168.474C169.774 168.874 172.323 175.407 173.441 178.274C173.488 178.443 173.465 178.623 173.378 178.775C173.292 178.928 173.148 179.04 172.979 179.086C172.811 179.126 172.633 179.101 172.483 179.016C172.332 178.93 172.22 178.79 172.168 178.625C172.011 178.224 169.463 171.691 168.345 168.825C168.3 168.657 168.323 168.478 168.408 168.327C168.494 168.176 168.636 168.065 168.803 168.018L168.805 168.012ZM160.934 179.61L162.69 168.474C162.737 168.305 162.848 168.162 163.001 168.076C163.153 167.989 163.333 167.966 163.502 168.012C163.668 168.064 163.807 168.177 163.893 168.328C163.978 168.479 164.003 168.656 163.962 168.825C163.89 169.282 162.208 179.961 162.208 179.961C162.161 180.13 162.049 180.273 161.897 180.36C161.744 180.446 161.564 180.469 161.395 180.423C161.23 180.372 161.091 180.26 161.005 180.111C160.919 179.961 160.893 179.784 160.932 179.616L160.934 179.61ZM151.22 173.987C151.511 173.691 156.136 169 158.163 166.95C158.761 166.345 159.694 167.279 159.097 167.884L152.153 174.92C151.553 175.531 150.62 174.597 151.219 173.992L151.22 173.987Z" fill="#E9FF6B"/>
<path d="M186.547 142.196C186.199 143.212 185.765 144.197 185.249 145.14C184.809 145.944 184.114 146.579 183.274 146.945C182.433 147.312 181.495 147.388 180.606 147.162C179.846 146.843 179.206 146.292 178.778 145.587C178.351 144.882 178.157 144.059 178.225 143.238C178.323 141.966 178.488 140.7 178.719 139.445C174.121 141.565 172.364 144.304 169.321 144.105C168.47 144.039 167.671 143.668 167.073 143.059C166.474 142.45 166.116 141.645 166.066 140.793C164.114 141.359 133.469 150.247 132.962 150.388C132.867 150.413 132.766 150.401 132.681 150.352C132.595 150.303 132.532 150.223 132.506 150.128C132.45 149.884 132.395 149.638 132.339 149.394C132.322 149.411 132.305 149.432 132.289 149.451C132.191 149.552 132.12 149.676 132.083 149.812C132.047 149.948 132.045 150.091 132.079 150.228C132.113 150.364 132.181 150.49 132.277 150.593C132.373 150.696 132.494 150.773 132.627 150.817L132.644 150.826C138.702 153.328 157.408 161.72 160.365 162.954C160.693 163.155 161.074 163.25 161.458 163.227C161.877 163.144 164.531 162.372 165.157 162.185C172.417 160.014 182.227 156.521 189.345 153.907C189.2 149.298 188.953 146.017 186.547 142.196Z" fill="#EAEAEA"/>
<path d="M183.639 114.298C183.621 114.237 183.588 114.181 183.543 114.135C183.498 114.09 183.442 114.057 183.381 114.04C180.799 113.753 178.234 113.33 175.696 112.771C174.485 112.459 172.904 112.037 172.419 110.723C171.669 108.702 173.76 107.127 175.464 106.688C177.329 106.399 179.232 106.484 181.063 106.937C181.126 106.953 181.192 106.952 181.255 106.934C181.317 106.917 181.374 106.884 181.42 106.838C181.466 106.792 181.499 106.735 181.517 106.673C181.535 106.61 181.536 106.544 181.521 106.481C181.2 105.068 180.745 103.689 180.449 102.271C180.421 102.177 180.357 102.098 180.272 102.049C180.187 102.001 180.086 101.988 179.991 102.012C176.14 102.935 128.845 113.73 124.787 114.631C124.693 114.659 124.613 114.723 124.565 114.808C124.517 114.893 124.503 114.994 124.527 115.089C125.087 117.368 132.448 149.875 132.504 150.119C132.53 150.214 132.593 150.294 132.679 150.343C132.764 150.391 132.865 150.404 132.96 150.379C133.467 150.242 164.112 141.349 166.063 140.784C165.913 138.435 168.192 135.711 169.738 133.907C168.849 133.739 168.02 133.339 167.335 132.748C166.65 132.157 166.134 131.396 165.838 130.541C165.683 129.571 165.897 128.578 166.438 127.758C166.98 126.939 167.809 126.352 168.762 126.115C169.509 124.939 170.264 123.762 170.947 122.546L163.868 117.846C163.162 117.377 163.824 116.234 164.534 116.706C164.534 116.706 169.913 120.329 172.16 121.768C172.306 121.86 172.413 122.005 172.456 122.173C172.5 122.341 172.479 122.519 172.396 122.672C171.776 123.815 171.085 124.927 170.384 126.027C172.336 126.251 173.791 126.974 176.585 126.658C179.192 126.339 181.725 125.582 184.08 124.42C184.615 124.111 186.12 123.239 186.337 123.11C185.717 121.163 184.169 116.255 183.639 114.298ZM159.45 117.451C157.856 123.538 156.075 129.575 154.272 135.603C154.218 135.764 154.105 135.898 153.956 135.978C153.806 136.058 153.632 136.078 153.468 136.033C153.305 135.987 153.165 135.881 153.078 135.736C152.99 135.591 152.962 135.417 152.999 135.252C154.592 129.165 156.372 123.128 158.176 117.1C158.225 116.935 158.338 116.795 158.489 116.712C158.64 116.628 158.818 116.607 158.984 116.653C159.151 116.699 159.293 116.808 159.38 116.957C159.467 117.106 159.492 117.284 159.45 117.451ZM139.389 129.87C141.729 126.759 144.067 123.648 146.404 120.536C146.495 120.387 146.64 120.279 146.808 120.235C146.977 120.191 147.156 120.213 147.308 120.299C147.459 120.387 147.569 120.532 147.613 120.702C147.657 120.871 147.633 121.051 147.545 121.203L141.016 129.89C143.909 130.961 146.844 131.921 149.73 133.018C149.897 133.067 150.038 133.179 150.124 133.331C150.21 133.483 150.233 133.662 150.19 133.83C150.143 133.999 150.031 134.142 149.879 134.228C149.727 134.314 149.547 134.337 149.379 134.29C146.201 133.083 142.96 132.048 139.784 130.841C139.432 130.706 139.109 130.243 139.389 129.87Z" fill="white"/>
<path d="M186.035 141.42C185.193 140.046 183.843 139.057 182.279 138.669C181.043 138.57 179.805 138.836 178.719 139.435C178.488 140.689 178.323 141.955 178.224 143.227C178.156 144.049 178.35 144.871 178.778 145.576C179.206 146.281 179.845 146.832 180.606 147.152C181.494 147.377 182.433 147.301 183.273 146.935C184.114 146.569 184.809 145.933 185.249 145.129C185.764 144.187 186.199 143.202 186.546 142.185C186.386 141.932 186.217 141.677 186.035 141.42Z" fill="white"/>
<path d="M150.185 133.836C150.229 133.668 150.205 133.489 150.119 133.337C150.033 133.185 149.892 133.073 149.725 133.024C146.839 131.931 143.905 130.967 141.011 129.897L147.54 121.209C147.628 121.057 147.653 120.877 147.608 120.708C147.564 120.538 147.455 120.393 147.304 120.305C147.152 120.219 146.972 120.197 146.804 120.241C146.635 120.285 146.49 120.393 146.4 120.542C144.062 123.653 141.723 126.764 139.385 129.876C139.112 130.249 139.427 130.712 139.779 130.847C142.957 132.054 146.198 133.089 149.374 134.296C149.543 134.343 149.723 134.32 149.875 134.234C150.027 134.148 150.138 134.005 150.185 133.836Z" fill="white"/>
<path d="M172.157 121.776C169.911 120.336 164.531 116.713 164.531 116.713C163.821 116.242 163.166 117.385 163.865 117.853L170.948 122.557C170.266 123.772 169.506 124.949 168.763 126.125C169.296 126.006 169.844 125.976 170.386 126.035C171.086 124.934 171.777 123.823 172.397 122.68C172.48 122.527 172.501 122.348 172.456 122.18C172.412 122.012 172.305 121.867 172.157 121.776Z" fill="black"/>
<path d="M158.177 117.104C156.372 123.132 154.594 129.169 153 135.255C152.963 135.421 152.992 135.594 153.079 135.74C153.166 135.885 153.306 135.991 153.47 136.036C153.633 136.081 153.808 136.062 153.957 135.982C154.107 135.902 154.22 135.767 154.273 135.606C156.077 129.579 157.859 123.543 159.451 117.455C159.493 117.287 159.468 117.11 159.381 116.961C159.294 116.812 159.152 116.702 158.986 116.657C158.819 116.611 158.641 116.632 158.49 116.715C158.339 116.799 158.227 116.938 158.177 117.104Z" fill="white"/>
<path d="M249.84 184.18C252.21 181.605 254.237 178.733 255.87 175.638C256.265 174.887 255.125 174.218 254.73 174.971C253.235 177.812 251.395 180.456 249.25 182.844C249.796 183.937 249.855 183.73 249.27 184.361C249.373 184.389 249.481 184.386 249.582 184.354C249.683 184.322 249.772 184.261 249.84 184.18Z" fill="white"/>
<path d="M233.271 148.779C233.317 148.61 233.294 148.43 233.208 148.277C233.121 148.125 232.978 148.013 232.809 147.966C232.641 147.923 232.462 147.947 232.311 148.033C232.159 148.119 232.047 148.261 231.998 148.428C230.936 151.159 229.667 154.039 227.025 155.562C226.938 155.61 226.865 155.68 226.812 155.763C226.759 155.847 226.727 155.942 226.719 156.041C226.843 155.981 226.97 155.925 227.092 155.855C227.148 155.822 227.213 155.805 227.279 155.805C227.344 155.805 227.409 155.822 227.466 155.855C227.702 156.025 227.936 156.198 228.17 156.369C230.777 154.576 232.143 151.67 233.271 148.779Z" fill="white"/>
<path d="M249.637 183.598C247.152 178.427 244.244 173.469 240.945 168.776C237.207 163.746 232.651 159.38 227.467 155.86C227.41 155.826 227.345 155.809 227.28 155.809C227.214 155.809 227.149 155.826 227.093 155.86C223.363 158.004 218.179 156.194 216.836 147.904C215.389 138.985 215.299 129.632 208.765 123.162C206.659 121.019 203.892 119.649 200.911 119.275C196.209 118.756 191.722 120.857 187.349 122.923C187.447 122.98 187.528 123.062 187.585 123.16C187.642 123.258 187.673 123.369 187.675 123.482C187.676 123.596 187.648 123.708 187.594 123.807C187.54 123.907 187.461 123.991 187.365 124.051C178.062 129.413 174.644 130.839 170.919 134.118C170.822 134.205 170.702 134.262 170.574 134.283C170.445 134.303 170.314 134.286 170.195 134.233C170.076 134.18 169.975 134.094 169.904 133.986C169.833 133.877 169.795 133.75 169.795 133.619C169.8 133.472 169.857 133.332 169.956 133.222C172.858 130.364 177.74 128.089 184.078 124.432C181.723 125.594 179.189 126.351 176.583 126.67C173.715 126.994 172.358 126.26 170.382 126.039C169.765 125.939 169.133 125.987 168.538 126.178C167.943 126.369 167.402 126.698 166.958 127.139C166.515 127.579 166.182 128.118 165.987 128.712C165.792 129.306 165.74 129.937 165.836 130.555C166.132 131.41 166.648 132.172 167.333 132.763C168.018 133.354 168.847 133.754 169.736 133.921C168.398 135.484 166.334 138.018 166.086 140.019C166.009 140.503 166.033 140.997 166.157 141.472C166.28 141.946 166.501 142.389 166.804 142.774C167.108 143.159 167.488 143.477 167.92 143.708C168.353 143.939 168.828 144.077 169.317 144.115C172.387 144.316 174.233 141.483 178.715 139.456C179.8 138.856 181.039 138.59 182.275 138.69C183.84 139.079 185.189 140.067 186.032 141.442C190.97 148.285 188.188 154.321 190.455 166.257C192.023 174.459 196.087 181.976 202.091 187.779C208.277 193.444 216.045 195.659 224.329 195.771C229.831 195.844 235.834 194.995 240.443 192.074C243.681 189.868 246.644 187.284 249.271 184.378C249.516 184.108 249.804 183.916 249.637 183.598ZM210.248 183.714C208.419 183.246 206.634 182.623 204.911 181.853C204.76 181.764 204.65 181.619 204.606 181.45C204.561 181.28 204.585 181.1 204.673 180.948C204.766 180.802 204.911 180.695 205.079 180.652C205.247 180.608 205.425 180.629 205.578 180.712C207.203 181.42 208.882 181.998 210.599 182.44C210.764 182.489 210.904 182.602 210.987 182.753C211.071 182.904 211.092 183.082 211.046 183.248C211 183.415 210.891 183.557 210.742 183.644C210.593 183.731 210.415 183.756 210.248 183.714Z" fill="white"/>
<path d="M210.601 182.428C208.884 181.986 207.205 181.408 205.58 180.7C205.427 180.617 205.249 180.595 205.081 180.639C204.913 180.683 204.768 180.789 204.676 180.936C204.588 181.088 204.563 181.268 204.608 181.437C204.652 181.607 204.762 181.752 204.913 181.84C206.636 182.611 208.421 183.234 210.25 183.702C210.417 183.744 210.595 183.719 210.744 183.632C210.893 183.545 211.002 183.403 211.048 183.236C211.094 183.07 211.073 182.892 210.989 182.741C210.906 182.59 210.766 182.477 210.601 182.428Z" fill="#59DFFD"/>
<path d="M179.94 126.766C177.53 128.022 175.184 129.398 172.913 130.89C171.882 131.605 170.896 132.38 169.957 133.212C169.878 133.302 169.825 133.412 169.805 133.531C169.786 133.649 169.8 133.771 169.847 133.882C169.894 133.993 169.971 134.088 170.069 134.157C170.168 134.225 170.284 134.265 170.404 134.27C170.497 134.281 170.591 134.272 170.679 134.244C170.768 134.216 170.85 134.17 170.92 134.108C174.323 131.113 177.767 129.506 182.064 127.106C183.847 126.111 185.598 125.058 187.366 124.04C188.102 123.617 187.398 122.466 186.7 122.902C186.581 122.981 181.326 125.996 179.94 126.766Z" fill="#59DFFD"/>
<path d="M160.843 133.067C160.438 132.127 159.75 131.336 158.875 130.805C158 130.275 156.98 130.031 155.96 130.108C155.068 130.159 154.218 130.497 153.535 131.072C152.852 131.647 152.373 132.428 152.171 133.298C151.306 137.248 156.196 140.212 159.42 137.829C160.131 137.288 160.653 136.536 160.908 135.68C161.164 134.824 161.141 133.909 160.843 133.067Z" fill="#7AE7FF"/>
<path d="M191.438 83.8322V71.6934C191.43 71.5235 191.357 71.3631 191.234 71.2456C191.111 71.1281 190.948 71.0625 190.777 71.0625C190.607 71.0625 190.444 71.1281 190.321 71.2456C190.198 71.3631 190.125 71.5235 190.117 71.6934V83.8322C190.125 84.0022 190.198 84.1626 190.321 84.2801C190.444 84.3976 190.607 84.4632 190.777 84.4632C190.948 84.4632 191.111 84.3976 191.234 84.2801C191.357 84.1626 191.43 84.0022 191.438 83.8322Z" fill="black"/>
<path d="M195.056 85.6592C195.208 85.744 195.387 85.7666 195.555 85.7223C195.723 85.678 195.868 85.5702 195.958 85.4216L205.02 73.5518C205.109 73.4005 205.133 73.2205 205.089 73.0511C205.045 72.8816 204.935 72.7367 204.784 72.6478C204.632 72.563 204.453 72.5404 204.284 72.5847C204.116 72.629 203.971 72.7367 203.88 72.8854L194.819 84.7498C194.775 84.8249 194.745 84.9081 194.733 84.9946C194.721 85.0811 194.726 85.1692 194.748 85.2538C194.77 85.3384 194.808 85.4178 194.861 85.4874C194.914 85.557 194.98 85.6154 195.056 85.6592Z" fill="black"/>
<path d="M210.093 84.5158L199.593 88.9868C199.442 89.0752 199.332 89.2198 199.287 89.389C199.243 89.5582 199.267 89.7382 199.355 89.8894C199.447 90.0366 199.592 90.1431 199.76 90.1872C199.928 90.2313 200.107 90.2098 200.259 90.1271L210.759 85.6561C210.834 85.6125 210.9 85.5544 210.953 85.4853C211.005 85.4162 211.044 85.3374 211.066 85.2534C211.088 85.1694 211.093 85.0819 211.081 84.9959C211.07 84.9098 211.041 84.827 210.997 84.752C210.906 84.6033 210.761 84.4956 210.593 84.4516C210.424 84.4075 210.245 84.4305 210.093 84.5158Z" fill="black"/>
<path d="M159.093 167.888C159.689 167.283 158.757 166.349 158.159 166.954C156.136 169.002 151.507 173.694 151.216 173.991C150.618 174.596 151.551 175.53 152.149 174.923C153.522 173.533 156.558 170.455 159.093 167.888Z" fill="black"/>
<path d="M163.502 168.016C163.333 167.969 163.153 167.992 163 168.079C162.848 168.165 162.736 168.308 162.689 168.477L160.933 179.614C160.892 179.782 160.917 179.96 161.003 180.111C161.089 180.262 161.229 180.375 161.395 180.426C161.564 180.472 161.744 180.45 161.896 180.363C162.049 180.277 162.16 180.133 162.207 179.965C162.207 179.965 163.89 169.286 163.962 168.828C164.003 168.66 163.978 168.482 163.893 168.331C163.807 168.18 163.667 168.067 163.502 168.016Z" fill="black"/>
<path d="M169.613 168.474C169.563 168.308 169.451 168.166 169.3 168.08C169.148 167.994 168.969 167.97 168.8 168.013C168.632 168.06 168.489 168.172 168.402 168.324C168.316 168.476 168.294 168.657 168.34 168.825C169.459 171.693 172.007 178.225 172.164 178.625C172.215 178.79 172.328 178.93 172.478 179.016C172.629 179.102 172.807 179.127 172.975 179.087C173.144 179.04 173.288 178.928 173.374 178.776C173.461 178.623 173.483 178.443 173.437 178.274C167.997 164.333 170.193 169.963 169.613 168.474Z" fill="black"/>
<path d="M81.3823 138.324C82.6164 133.931 84.9827 129.938 88.2444 126.747C88.8589 126.157 87.9235 125.224 87.3103 125.812C83.8242 129.113 81.3301 133.323 80.1095 137.966C80.0727 138.132 80.1009 138.305 80.1883 138.451C80.2757 138.596 80.4155 138.702 80.579 138.747C80.7425 138.792 80.917 138.773 81.0665 138.693C81.216 138.613 81.3291 138.478 81.3823 138.317V138.324Z" fill="black"/>
<path d="M85.6515 123.336C86.2878 122.771 85.3497 121.834 84.7174 122.404C80.5435 126.133 77.258 130.75 75.1022 135.915C75.079 135.998 75.0725 136.086 75.0831 136.172C75.0936 136.258 75.1211 136.341 75.1638 136.416C75.2066 136.491 75.2638 136.558 75.3322 136.611C75.4006 136.664 75.4788 136.703 75.5624 136.726C75.732 136.771 75.9126 136.749 76.0657 136.663C76.2187 136.577 76.3321 136.434 76.3818 136.266C78.4739 131.322 81.6404 126.905 85.6515 123.336Z" fill="black"/>
<path d="M102.991 88.1938C110.912 89.9008 116.075 92.139 119.489 99.6157C121.188 103.551 122.444 107.662 123.236 111.875C123.421 112.704 124.694 112.353 124.509 111.524C124.352 110.815 123.885 108.793 123.814 108.499C120.221 93.5552 114.994 89.8271 105.478 87.425C91.5163 83.9004 73.8358 83.94 71.1674 69.1956C71.0172 68.3612 69.7472 68.7135 69.8947 69.5465C72.4675 84.1421 89.4665 85.281 102.991 88.1938Z" fill="#FF90E8"/>
<path d="M175.84 98.7314C176 99.5645 177.271 99.2121 177.114 98.3791C175.031 87.4161 172.732 76.7671 163.929 69.8381C155.856 63.488 144.611 65.3029 135.878 61.2266C131.48 59.1871 128.051 55.5128 126.319 50.9846C126.107 50.4261 125.941 49.8539 125.773 49.2817C125.72 49.1207 125.607 48.9863 125.457 48.9063C125.308 48.8263 125.133 48.8068 124.97 48.8519C124.806 48.897 124.666 49.0032 124.579 49.1485C124.492 49.2938 124.463 49.4671 124.5 49.6326C125.756 54.3918 128.768 58.4984 132.93 61.1255C145.04 68.8753 161.113 61.3099 170.592 80.3122C173.449 86.0327 174.638 92.4333 175.84 98.7314Z" fill="white"/>
<path d="M247.665 103.165C248.715 103.125 249.743 102.848 250.671 102.355C251.599 101.863 252.404 101.167 253.026 100.319C253.648 99.4719 254.07 98.4951 254.261 97.4618C254.453 96.4285 254.408 95.3652 254.131 94.3515C253.237 90.5182 249.529 87.8976 245.079 90.2547C238.36 93.8325 241.329 103.165 247.665 103.165ZM243.227 93.7998C245.176 90.4213 249.791 89.6374 251.797 92.3126C248.961 92.8616 246.082 93.36 243.227 93.7998ZM242.64 95.2842C245.706 94.8335 248.939 94.2723 252.512 93.5676C252.911 94.4765 253.088 95.4674 253.028 96.4583C252.969 97.4493 252.674 98.4118 252.169 99.2663C251.772 99.9938 251.201 100.611 250.506 101.062C249.811 101.514 249.014 101.785 248.188 101.852C247.363 101.918 246.533 101.778 245.775 101.444C245.017 101.109 244.354 100.591 243.846 99.9368C243.308 99.3016 242.921 98.5535 242.712 97.748C242.503 96.9426 242.479 96.1005 242.64 95.2842Z" fill="black"/>
<path d="M111.941 202.425C105.388 197.295 97.3038 194.513 88.9823 194.523C80.6608 194.534 72.5836 197.337 66.0442 202.483C65.9478 202.569 65.8793 202.682 65.8477 202.807C65.8161 202.932 65.8229 203.063 65.867 203.185C65.9112 203.306 65.9908 203.411 66.0954 203.486C66.2001 203.562 66.325 203.604 66.4539 203.607H111.597C111.733 203.602 111.864 203.554 111.972 203.471C112.079 203.387 112.158 203.271 112.196 203.14C112.234 203.009 112.23 202.87 112.184 202.741C112.138 202.613 112.053 202.502 111.941 202.425ZM109.526 202.318H68.4422C74.4602 198.096 81.6329 195.831 88.9843 195.831C96.3356 195.831 103.508 198.096 109.526 202.318Z" fill="black"/>
<path d="M257.998 110.773C246.445 105.352 234.236 112.368 226.42 122.742C224.978 124.654 223.688 126.671 222.439 128.713C220.365 120.293 216.182 112.538 210.285 106.18C200.936 96.4136 186.455 92.9628 176.716 96.2866C175.887 91.2369 174.513 86.2919 172.619 81.5382C170.8 76.9476 167.806 72.9156 163.938 69.8459C155.866 63.4958 144.622 65.3107 135.889 61.2344C131.491 59.1946 128.061 55.5204 126.329 50.9924C126.119 50.4339 125.951 49.8617 125.783 49.2895C125.73 49.1285 125.617 48.9941 125.467 48.9141C125.318 48.8341 125.143 48.8146 124.98 48.8597C124.816 48.9048 124.676 49.011 124.589 49.1563C124.502 49.3016 124.474 49.4749 124.51 49.6405C125.766 54.3971 128.776 58.502 132.935 61.1293C145.044 68.879 161.117 61.3136 170.595 80.3173C172.96 85.5513 174.601 91.0826 175.473 96.7591C173.689 97.4338 172.057 98.4569 170.673 99.7687C169.288 101.08 168.178 102.655 167.408 104.4C164.577 105.048 157.371 106.714 155.664 107.108C155.65 107.055 155.62 107.007 155.578 106.971C146.439 98.9864 131.756 99.0506 123.736 108.182C120.166 93.5322 114.942 89.8151 105.478 87.4266C91.2238 83.8283 73.8206 83.8651 71.1672 69.1972C71.017 68.3628 69.7484 68.7152 69.8945 69.5482C73.1515 88.0316 99.6086 84.9808 111.59 90.9431C118.356 94.3106 120.935 102.058 122.682 109.461C120.344 112.493 118.643 115.965 117.678 119.67C110.969 119.611 104.137 122.846 98.4301 128.819C90.1118 137.558 85.0279 148.876 84.0203 160.899C83.3744 168.665 84.2074 178.963 91.852 183.93C94.5612 185.637 97.5314 186.891 100.645 187.64C105.93 188.797 111.342 186.834 115.497 182.257C119.529 177.817 121.303 172.125 122.481 166.484C124.564 179.785 136.803 194.367 150.726 194.367C154.814 194.375 158.789 193.023 162.025 190.525C162.051 190.505 162.073 190.479 162.09 190.45C163.356 191.216 164.645 191.946 165.928 192.68C175.729 198.296 181.108 200.136 187.246 201.462C201.032 204.445 215.314 204.258 229.017 200.916C246.497 196.295 265.342 177.564 271.049 152.048C272.847 144.005 273.536 135.314 271.24 127.298C269.252 120.342 264.661 113.899 257.998 110.773ZM203.864 102.467C211.591 107.769 216.997 116.214 219.951 125.067C218.237 127.735 216.493 130.393 214.596 132.93C211.774 122.999 204.218 116.518 194.342 119.727C192.731 117.311 190.317 115.544 187.527 114.74C185.216 114.009 182.842 113.494 180.436 113.201C178.842 112.992 174.154 112.334 173.134 111.083C172.862 110.713 172.723 110.262 172.739 109.803C172.755 109.344 172.926 108.904 173.224 108.554C173.831 107.834 174.66 107.335 175.58 107.135C177.367 106.881 179.186 106.966 180.942 107.385C181.083 107.419 181.229 107.417 181.368 107.378C181.507 107.339 181.634 107.265 181.736 107.162C181.838 107.06 181.912 106.934 181.95 106.795C181.989 106.656 181.991 106.509 181.957 106.369C181.636 104.957 181.181 103.578 180.885 102.16C180.823 101.952 180.683 101.775 180.494 101.667C180.305 101.56 180.081 101.529 179.87 101.582C176.273 102.445 172.652 103.195 169.047 104.021C175.223 93.0324 193.169 95.1327 203.864 102.467ZM184.076 138.243C180.799 136.442 176.999 138.79 173.91 140.871C171.949 142.195 170.605 143.172 168.805 142.804C168.307 142.615 167.886 142.267 167.606 141.814C167.325 141.361 167.202 140.829 167.254 140.299C167.498 139.039 168.062 137.863 168.892 136.885C170.649 134.462 176.253 130.748 180.693 128.035C187.415 123.928 187.93 123.657 191.609 122.113C196.726 119.965 201.553 119.206 206.106 122.307C207.317 123.144 208.399 124.153 209.32 125.302C216.627 134.287 213.651 147.685 217.998 154.116C220.183 157.354 223.825 158.751 227.216 156.947C235.956 163.272 241.037 168.827 248.511 183.665C247.398 184.864 246.23 186.008 245.025 187.114C241.361 190.472 238.575 192.507 233.67 193.762C231.731 194.24 229.754 194.548 227.762 194.681C219.933 195.201 211.671 193.625 205.268 189.022C201.392 186.122 198.201 182.406 195.918 178.138C187.587 163.227 192.513 150.93 188.27 142.735C187.355 140.851 185.893 139.286 184.076 138.243ZM154.913 185.41C156.819 186.989 158.831 188.434 160.936 189.736C155.791 193.717 147.963 194.166 141.408 190.845C131.564 185.859 123.468 173.492 123.481 162.678C123.481 162.211 123.481 161.744 123.459 161.277C123.422 160.56 122.321 160.388 122.187 161.14C120.77 169.148 119.004 179.114 111.102 184.337C109.361 185.547 107.353 186.318 105.25 186.584C103.147 186.851 101.01 186.605 99.0228 185.867C96.7832 185.148 94.6422 184.152 92.6495 182.903C88.0065 179.934 85.5743 174.641 85.2179 166.718C85.0052 159.977 86.1238 153.26 88.5097 146.952C90.8956 140.644 94.502 134.868 99.1225 129.956C108.744 119.569 119.443 119.664 125.679 122.904C125.737 122.934 125.803 122.942 125.866 122.928C129.933 140.663 132.002 150.119 132.079 150.274C132.195 150.575 132.181 150.627 133.14 151.043C134.311 151.551 136.939 152.604 143.036 155.32C142.398 160.925 143.147 166.601 145.218 171.848C147.289 177.095 150.619 181.752 154.913 185.41ZM124.665 114.203C124.456 114.265 124.28 114.406 124.173 114.595C124.066 114.784 124.036 115.007 124.09 115.218C124.591 117.266 125.046 119.315 125.51 121.375C123.454 120.447 121.25 119.889 119 119.727C121.501 110.578 127.812 104.251 135.934 102.769C139.13 102.207 142.409 102.334 145.552 103.142C148.695 103.95 151.629 105.421 154.158 107.456C147.903 108.906 128.662 113.316 124.665 114.203ZM135.316 150.177L165.7 141.382C165.882 142.302 166.387 143.127 167.123 143.709C167.859 144.292 168.778 144.592 169.716 144.558C172.541 144.434 174.237 142.25 178.137 140.23C178.001 141.107 177.885 141.989 177.795 142.871C177.668 144.024 177.95 145.184 178.592 146.149C180.258 148.622 183.857 148.061 185.409 145.739C185.921 144.962 186.334 144.125 186.638 143.246C186.936 143.775 187.209 144.317 187.458 144.869C188.379 147.25 188.837 149.786 188.806 152.339C181.577 154.991 169.249 159.453 161.27 161.557C152.523 157.937 144.038 153.888 135.316 150.177ZM179.433 142.972C179.535 141.735 179.743 140.503 179.951 139.285C180.665 139.016 181.431 138.911 182.192 138.979C183.587 139.303 184.804 140.153 185.587 141.353C185.233 142.347 184.823 143.321 184.358 144.268C183.484 146.1 181.138 146.815 180.008 145.317C179.761 144.984 179.583 144.605 179.484 144.203C179.386 143.8 179.368 143.382 179.433 142.972ZM170.42 132.816C169.629 132.766 168.873 132.474 168.255 131.978C167.636 131.482 167.185 130.808 166.964 130.047C166.952 129.515 167.088 128.99 167.359 128.531C167.629 128.073 168.022 127.699 168.494 127.452C169.26 127.127 170.113 127.071 170.915 127.293C171.916 127.557 172.935 127.747 173.964 127.861C175.462 128.011 176.975 127.916 178.442 127.578C178.595 127.578 177.772 127.91 175.522 129.225C173.715 130.262 172.009 131.466 170.427 132.823L170.42 132.816ZM184.373 115.259C187.789 115.688 190.897 117.45 193.02 120.161C190.881 120.963 188.785 121.873 186.738 122.886C185.927 120.354 185.103 117.818 184.38 115.259H184.373ZM179.469 103.362C179.653 104.103 179.865 104.838 180.06 105.575C178.661 105.266 177.218 105.209 175.8 105.407C171.109 106.122 169.918 110.516 172.207 112.5C174.222 114.248 179.885 114.77 182.619 115.131C183.39 117.921 184.292 120.678 185.174 123.433C181.396 125.181 177.208 126.899 172.991 126.069C172.205 125.915 171.421 125.691 170.624 125.58C171.251 124.637 171.853 123.668 172.388 122.678C172.471 122.526 172.493 122.347 172.449 122.179C172.405 122.012 172.299 121.867 172.152 121.774C169.906 120.336 164.527 116.712 164.527 116.712C163.816 116.241 163.161 117.385 163.86 117.852L170.935 122.55C170.351 123.588 169.714 124.598 169.043 125.582C168.401 125.676 167.789 125.914 167.253 126.279C166.717 126.643 166.269 127.124 165.945 127.685C165.621 128.247 165.428 128.874 165.38 129.521C165.333 130.168 165.432 130.817 165.671 131.419C166.37 132.715 167.536 133.697 168.932 134.164C167.449 135.721 166.344 137.598 165.701 139.65L133.463 148.981C133.078 147.277 126.396 117.899 125.868 115.621C139.135 112.678 162.141 107.225 179.476 103.362H179.469ZM270.62 147.189C266.564 173.248 248.235 192.896 232.423 198.446C217.586 203.656 196.917 203.208 182.688 198.914C179.209 197.848 175.834 196.467 172.605 194.789C168.645 192.751 164.727 190.555 160.958 188.187C157.497 186.075 154.381 183.442 151.721 180.382C148.931 176.989 146.84 173.077 145.568 168.873C144.296 164.668 143.868 160.253 144.31 155.883C148.083 157.569 158.884 162.337 160.517 163.018C160.701 163.136 160.909 163.208 161.126 163.23C161.343 163.251 161.562 163.221 161.765 163.141C169.191 161.18 181.86 156.639 189.042 154.008C189.341 162.435 189.913 169.055 193.685 176.718C195.682 180.927 198.449 184.725 201.843 187.916C208.437 193.924 217.12 196.34 226.074 196.067C231.03 196.108 235.914 194.886 240.267 192.516C246.747 188.228 252.1 182.443 255.873 175.65C256.268 174.899 255.127 174.23 254.733 174.983C253.288 177.729 251.518 180.29 249.46 182.612C243.4 170.698 238.68 163.694 228.422 156.202C230.71 154.241 232.393 151.668 233.274 148.784C233.32 148.616 233.298 148.435 233.211 148.283C233.125 148.13 232.981 148.018 232.812 147.972C232.644 147.928 232.465 147.952 232.313 148.038C232.162 148.124 232.05 148.265 232.001 148.432C231.228 150.964 229.786 153.24 227.828 155.021C227.173 155.566 226.407 155.959 225.583 156.173C224.759 156.386 223.897 156.415 223.061 156.257C222.225 156.098 221.433 155.757 220.744 155.257C220.055 154.757 219.485 154.111 219.075 153.365C216.389 149.286 216.858 142.497 215.05 134.679C216.994 132.143 218.771 129.49 220.503 126.806C220.888 128.045 221.221 129.3 221.568 130.551C221.605 130.674 221.678 130.783 221.776 130.865C221.874 130.948 221.994 131.001 222.121 131.017C222.248 131.034 222.377 131.014 222.493 130.959C222.609 130.904 222.707 130.817 222.775 130.708C225.142 126.526 227.997 122.639 231.281 119.13C237.032 113.373 244.765 109.162 252.785 110.498C259.697 111.652 265.229 116.873 268.229 123.043C271.84 130.462 271.872 139.19 270.627 147.189H270.62Z" fill="black"/>
<path d="M156.841 138.95C157.613 138.958 158.374 138.766 159.049 138.393C159.725 138.019 160.292 137.478 160.697 136.82C161.101 136.163 161.328 135.412 161.356 134.64C161.384 133.869 161.212 133.104 160.856 132.419C158.734 128.763 153.109 129.005 151.968 132.965C151.789 133.691 151.782 134.449 151.946 135.179C152.11 135.909 152.442 136.591 152.914 137.171C153.386 137.751 153.987 138.214 154.668 138.523C155.35 138.831 156.094 138.978 156.841 138.95ZM153.154 133.488C153.72 130.774 157.513 130.336 159.325 132.466C159.779 133.004 160.039 133.678 160.064 134.381C160.089 135.084 159.877 135.775 159.462 136.343C158.958 136.944 158.271 137.363 157.506 137.537C156.741 137.711 155.94 137.63 155.226 137.306C154.511 136.983 153.922 136.435 153.548 135.745C153.174 135.056 153.036 134.263 153.154 133.488Z" fill="black"/>
<path d="M232.476 97.3826L239.484 96.1058C240.318 95.9542 239.966 94.6801 239.133 94.833L232.125 96.1099C231.29 96.2614 231.644 97.5342 232.476 97.3826Z" fill="black"/>
<path d="M204.913 181.848C206.636 182.619 208.421 183.242 210.25 183.709C210.417 183.752 210.595 183.726 210.744 183.639C210.893 183.552 211.002 183.41 211.048 183.244C211.094 183.077 211.073 182.9 210.989 182.749C210.906 182.597 210.766 182.485 210.601 182.435C208.884 181.994 207.205 181.416 205.58 180.708C205.427 180.625 205.249 180.603 205.081 180.647C204.913 180.691 204.768 180.797 204.676 180.944C204.588 181.096 204.563 181.276 204.608 181.445C204.652 181.615 204.762 181.76 204.913 181.848Z" fill="black"/>
<path d="M190.8 84.4686C190.967 84.4635 191.126 84.3948 191.245 84.2766C191.363 84.1584 191.432 83.9995 191.438 83.8322V71.6934C191.43 71.5235 191.357 71.3631 191.234 71.2456C191.111 71.1281 190.948 71.0625 190.777 71.0625C190.607 71.0625 190.444 71.1281 190.321 71.2456C190.198 71.3631 190.125 71.5235 190.117 71.6934V83.8322C190.12 83.9189 190.14 84.0041 190.176 84.083C190.212 84.1618 190.263 84.2329 190.327 84.292C190.39 84.3511 190.465 84.3971 190.546 84.4274C190.627 84.4577 190.713 84.4717 190.8 84.4686Z" fill="black"/>
<path d="M204.79 72.6405C204.638 72.5553 204.459 72.5325 204.29 72.5768C204.122 72.6211 203.977 72.7291 203.886 72.8781C202.869 74.2123 195.201 84.259 194.824 84.7506C194.736 84.9021 194.712 85.0822 194.756 85.2517C194.801 85.4211 194.911 85.566 195.062 85.6546C195.214 85.7394 195.393 85.7619 195.561 85.7176C195.729 85.6733 195.874 85.5656 195.964 85.417C196.984 84.0828 204.651 74.0375 205.026 73.5445C205.115 73.3932 205.139 73.2131 205.095 73.0437C205.051 72.8743 204.941 72.7293 204.79 72.6405Z" fill="black"/>
<path d="M199.355 89.8893C199.446 90.0378 199.591 90.1453 199.76 90.1893C199.928 90.2334 200.107 90.2105 200.259 90.1256L210.759 85.656C210.911 85.5673 211.02 85.4225 211.065 85.253C211.109 85.0836 211.085 84.9034 210.997 84.7519C210.906 84.6033 210.762 84.4956 210.593 84.4516C210.425 84.4075 210.246 84.4305 210.094 84.5157L199.593 88.9853C199.442 89.0739 199.332 89.2188 199.287 89.3883C199.243 89.5577 199.267 89.7379 199.355 89.8893Z" fill="black"/>
<path d="M158.159 166.954L151.215 173.991C150.618 174.596 151.551 175.53 152.149 174.925L159.093 167.888C159.69 167.283 158.757 166.348 158.159 166.954Z" fill="black"/>
<path d="M163.5 168.016C163.332 167.969 163.152 167.992 163 168.079C162.847 168.165 162.736 168.308 162.689 168.477L160.933 179.614C160.892 179.782 160.917 179.96 161.003 180.111C161.089 180.262 161.229 180.375 161.395 180.426C161.564 180.472 161.744 180.45 161.896 180.363C162.049 180.277 162.16 180.133 162.207 179.965C162.207 179.965 163.891 169.286 163.962 168.828C164.003 168.659 163.978 168.481 163.892 168.33C163.806 168.18 163.666 168.067 163.5 168.016Z" fill="black"/>
<path d="M169.613 168.473C169.561 168.307 169.449 168.167 169.298 168.081C169.147 167.996 168.969 167.971 168.8 168.011C168.632 168.058 168.489 168.17 168.402 168.323C168.316 168.475 168.294 168.655 168.34 168.824C169.458 171.692 172.007 178.223 172.164 178.623C172.213 178.79 172.325 178.931 172.476 179.017C172.628 179.103 172.806 179.127 172.975 179.085C173.144 179.038 173.287 178.927 173.374 178.774C173.46 178.622 173.483 178.441 173.436 178.272C173.373 178.114 169.675 168.631 169.613 168.473Z" fill="black"/>
<path d="M169.688 168.664L169.697 168.689L169.688 168.664Z" fill="black"/>
<path d="M80.595 138.769C80.7578 138.809 80.9298 138.786 81.0756 138.703C81.2214 138.62 81.33 138.485 81.3789 138.324C82.613 133.931 84.9793 129.938 88.241 126.747C88.8556 126.157 87.9201 125.224 87.3083 125.812C83.8213 129.113 81.3267 133.323 80.1062 137.966C80.0846 138.051 80.0802 138.139 80.0933 138.226C80.1063 138.313 80.1364 138.396 80.1819 138.471C80.2275 138.545 80.2875 138.61 80.3584 138.662C80.4293 138.713 80.5098 138.749 80.595 138.769Z" fill="black"/>
<path d="M84.7188 122.402C80.5448 126.131 77.2588 130.747 75.1022 135.912C75.079 135.996 75.0725 136.083 75.083 136.169C75.0936 136.255 75.121 136.338 75.1638 136.414C75.2065 136.489 75.2637 136.555 75.3322 136.609C75.4006 136.662 75.4788 136.701 75.5624 136.724C75.732 136.77 75.9126 136.747 76.0657 136.661C76.2188 136.575 76.3322 136.433 76.3818 136.264C78.4763 131.319 81.6457 126.902 85.6597 123.335C86.2892 122.769 85.3456 121.837 84.7188 122.402Z" fill="black"/>
<path d="M148.926 127.635C148.156 124.914 146.208 118.759 146.093 118.374C146.066 118.279 146.003 118.199 145.917 118.15C145.832 118.102 145.73 118.089 145.635 118.114C142.915 118.885 136.759 120.831 136.374 120.948C136.279 120.975 136.199 121.037 136.15 121.123C136.102 121.208 136.089 121.309 136.114 121.404C137.001 124.09 138.835 130.281 138.949 130.666C138.976 130.76 139.039 130.841 139.124 130.889C139.21 130.938 139.311 130.951 139.406 130.925C142.126 130.155 148.282 128.206 148.667 128.092C148.761 128.065 148.842 128.002 148.89 127.917C148.939 127.831 148.952 127.73 148.926 127.635Z" fill="#7AE7FF"/>
<path d="M135.851 121.479C136.643 124.276 138.582 130.387 138.686 130.743C138.733 130.906 138.843 131.044 138.991 131.127C139.139 131.21 139.314 131.232 139.478 131.188C141.799 130.531 146.491 129.051 148.746 128.352C148.828 128.328 148.904 128.289 148.971 128.236C149.037 128.183 149.092 128.117 149.133 128.042C149.174 127.967 149.199 127.885 149.208 127.801C149.217 127.716 149.209 127.631 149.184 127.549C148.444 125.303 147.024 120.549 146.354 118.294C146.305 118.131 146.194 117.992 146.045 117.91C145.895 117.827 145.719 117.806 145.555 117.852C145.555 117.852 136.678 120.571 136.295 120.686C136.132 120.734 135.994 120.843 135.911 120.992C135.828 121.14 135.806 121.315 135.851 121.479ZM137.276 121.733L145.306 119.275L147.764 127.305L139.734 129.763L137.276 121.733Z" fill="black"/>
<path d="M53.4917 19.6956C52.7609 16.393 48.9792 12.5699 43.6289 10.1315C38.2785 7.69299 32.9112 7.34544 29.9392 8.95731L29.06 8.55716L27.9516 10.9862C26.2853 14.6439 30.5967 20.1934 37.5853 23.3796C44.5738 26.5639 51.5924 26.1825 53.255 22.5267L54.3634 20.0976L53.4898 19.6937L53.4917 19.6956Z" fill="#F3E033" stroke="black" stroke-miterlimit="10"/>
<path d="M38.6926 20.949C45.6812 24.1351 52.6979 23.7519 54.3661 20.0923C56.0344 16.4327 51.721 10.8851 44.7325 7.69892C37.7439 4.51275 30.7272 4.89599 29.059 8.55558C27.3908 12.2152 31.7041 17.7628 38.6926 20.949Z" fill="#F3E033" stroke="black" stroke-miterlimit="10"/>
<path d="M39.6718 18.8143C45.1819 21.326 50.6111 21.2528 51.7966 18.649C52.9839 16.0452 49.4783 11.899 43.9683 9.38729C38.4582 6.87555 33.029 6.94882 31.8435 9.55261C30.6562 12.1564 34.1618 16.3026 39.6718 18.8143Z" fill="#F3E033" stroke="black" stroke-miterlimit="10"/>
<path d="M153.606 60.4523C150.266 59.3221 144.813 60.6316 139.752 64.089C134.69 67.5464 131.484 72.146 131.318 75.6666L130.488 76.2352L132.057 78.535C134.422 81.9958 141.699 81.1438 148.311 76.6296C154.924 72.1153 158.369 65.6478 156.006 62.1904L154.437 59.8906L153.606 60.4523Z" fill="#F3E033" stroke="black" stroke-miterlimit="10"/>
<path d="M146.742 74.3297C153.355 69.8154 156.8 63.348 154.435 59.8854C152.071 56.4229 144.794 57.2766 138.181 61.7909C131.569 66.3051 128.123 72.7726 130.488 76.2351C132.853 79.6976 140.129 78.844 146.742 74.3297Z" fill="#F3E033" stroke="black" stroke-miterlimit="10"/>
<path d="M145.358 72.3007C150.572 68.7409 153.436 63.8578 151.754 61.3941C150.072 58.9304 144.482 59.8182 139.268 63.378C134.054 66.9379 131.191 71.8209 132.872 74.2846C134.554 76.7484 140.144 75.8605 145.358 72.3007Z" fill="#F3E033" stroke="black" stroke-miterlimit="10"/>
<path d="M44.7552 51.8312C40.229 48.3806 31.2124 47.573 21.6854 50.2502C12.16 52.929 4.88155 58.3106 2.81223 63.6137L1.25 64.0542L2.46564 68.3806C4.29764 74.8942 15.8701 77.3442 28.3133 73.8459C40.7566 70.3492 49.3634 62.2324 47.5314 55.7257L46.3157 51.3992L44.7552 51.8295V51.8312Z" fill="#F3E033" stroke="black" stroke-miterlimit="10"/>
<path d="M27.0932 69.5177C39.5381 66.0211 48.1432 57.9043 46.3112 51.389C44.4809 44.8737 32.9084 42.4254 20.4635 45.922C8.01854 49.4187 -0.584841 57.5355 1.24545 64.0508C3.07574 70.5661 14.6482 73.0144 27.0932 69.5177Z" fill="#F3E033" stroke="black" stroke-miterlimit="10"/>
<path d="M26.0248 65.7011C35.837 62.9438 42.7347 56.9509 41.432 52.3154C40.1293 47.68 31.1196 46.1553 21.3074 48.9127C11.4952 51.6701 4.59744 57.6629 5.90015 62.2984C7.20287 66.9356 16.2126 68.4585 26.0248 65.7011Z" fill="#F3E033" stroke="black" stroke-miterlimit="10"/>
<path d="M237.406 64.3963C237.445 60.7648 234.42 55.8425 229.415 51.989C224.411 48.1354 218.881 46.4656 215.379 47.4286L214.558 46.7969L212.808 49.0694C210.173 52.4909 213.334 59.3477 219.869 64.381C226.405 69.4143 233.841 70.7238 236.472 67.304L238.222 65.0315L237.406 64.3963Z" fill="#F3E033" stroke="black" stroke-miterlimit="10"/>
<path d="M221.62 62.1019C228.156 67.1369 235.591 68.443 238.228 65.0215C240.864 61.5999 237.702 54.7449 231.166 49.7099C224.63 44.6749 217.195 43.3687 214.559 46.7903C211.922 50.2118 215.084 57.0669 221.62 62.1019Z" fill="#F3E033" stroke="black" stroke-miterlimit="10"/>
<path d="M223.165 60.1C228.318 64.0696 234.015 65.3125 235.891 62.8779C237.768 60.4432 235.109 55.2511 229.957 51.2815C224.804 47.3119 219.106 46.0689 217.23 48.5036C215.355 50.9383 218.012 56.1304 223.165 60.1Z" fill="#F3E033" stroke="black" stroke-miterlimit="10"/>
<path d="M212.836 21.5808C209.927 20.6304 205.208 21.815 200.845 24.8598C196.482 27.9046 193.739 31.9249 193.629 34.9833L192.912 35.4846L194.294 37.4667C196.377 40.4495 202.685 39.6462 208.384 35.6685C214.083 31.6907 217.017 26.0483 214.934 23.0693L213.552 21.0872L212.836 21.5827V21.5808Z" fill="#F3E033" stroke="black" stroke-miterlimit="10"/>
<path d="M207.001 33.6732C212.7 29.6954 215.632 24.053 213.551 21.0682C211.469 18.0835 205.16 18.8887 199.462 22.8665C193.763 26.8442 190.831 32.4866 192.912 35.4714C194.994 38.4562 201.303 37.651 207.001 33.6732Z" fill="#F3E033" stroke="black" stroke-miterlimit="10"/>
<path d="M205.784 31.9318C210.279 28.7961 212.72 24.5338 211.239 22.4104C209.758 20.2869 204.913 21.1077 200.421 24.2434C195.926 27.3792 193.485 31.6415 194.966 33.7649C196.447 35.8883 201.292 35.0676 205.784 31.9318Z" fill="#F3E033" stroke="black" stroke-miterlimit="10"/>
<path d="M90.5937 3.66344C87.4932 7.67915 86.7266 15.7123 89.0622 24.2166C91.3979 32.721 96.158 39.238 100.872 41.1092L101.256 42.5041L105.118 41.4439C110.934 39.8458 113.179 29.5453 110.128 18.4355C107.077 7.32573 99.8886 -0.389825 94.0802 1.20997L90.2181 2.27024L90.5937 3.66344Z" fill="#F3E033" stroke="black" stroke-miterlimit="10"/>
<path d="M106.265 19.4977C103.214 8.38618 96.0259 0.674043 90.2089 2.27213C84.392 3.86851 82.1485 14.1707 85.1978 25.2822C88.2489 36.3937 95.4369 44.1058 101.254 42.5077C107.071 40.9114 109.314 30.6092 106.265 19.4977Z" fill="#F3E033" stroke="black" stroke-miterlimit="10"/>
<path d="M102.859 20.431C100.453 11.6706 95.1487 5.48992 91.0101 6.62702C86.8714 7.76412 85.4646 15.7853 87.8702 24.5457C90.2759 33.3062 95.5807 39.4868 99.7193 38.3497C103.858 37.2126 105.265 29.1915 102.859 20.431Z" fill="#F3E033" stroke="black" stroke-miterlimit="10"/>
<path d="M160.774 127.993C160.937 127.964 159.962 128.335 172.747 123.228C172.933 123.135 173.075 122.974 173.141 122.778C173.208 122.583 173.194 122.37 173.102 122.185C172.891 121.768 166.343 117.754 162.994 115.654C162.906 115.588 162.806 115.54 162.698 115.515C162.591 115.489 162.479 115.487 162.37 115.506C162.261 115.526 162.158 115.568 162.066 115.63C161.975 115.692 161.897 115.772 161.838 115.865C161.513 116.387 160.116 125.357 159.843 127.157C159.829 127.278 159.844 127.401 159.887 127.515C159.93 127.629 160 127.731 160.091 127.813C160.183 127.895 160.292 127.954 160.411 127.985C160.529 128.016 160.654 128.019 160.774 127.993ZM161.591 126.017C161.994 123.426 162.475 120.465 163.036 117.525L170.703 122.378L161.591 126.017Z" fill="black"/>
<path d="M162.789 116.822L171.281 122.322L161.105 126.798L162.789 116.822Z" fill="#7AE7FF"/>
</svg>
