<svg xmlns="http://www.w3.org/2000/svg" width="37" height="38" viewBox="0 0 37 38" fill="none">
<g clip-path="url(#clip0_1_33)">
<path d="M0.0133057 3.41235C0.0133057 2.30778 0.908736 1.41235 2.01331 1.41235H36.0133V37.4124H2.01331C0.908737 37.4124 0.0133057 36.5169 0.0133057 35.4124V3.41235Z" fill="white"/>
<path d="M18.0133 13.9749C19.3408 13.9749 20.5296 14.4324 21.4671 15.3249L24.0358 12.7561C22.4758 11.3049 20.4396 10.4124 18.0133 10.4124C14.4958 10.4124 11.4546 12.4299 9.97333 15.3699L12.9658 17.6911C13.6746 15.5574 15.6658 13.9749 18.0133 13.9749Z" fill="#EA4335"/>
<path d="M26.6308 19.6186C26.6308 19.0299 26.5746 18.4599 26.4883 17.9124H18.0133V21.2949H22.8658C22.6483 22.4049 22.0183 23.3499 21.0733 23.9874L23.9721 26.2374C25.6633 24.6699 26.6308 22.3524 26.6308 19.6186Z" fill="#4285F4"/>
<path d="M12.9621 21.1336C12.7821 20.5899 12.6771 20.0124 12.6771 19.4124C12.6771 18.8124 12.7783 18.2349 12.9621 17.6911L9.96956 15.3699C9.35831 16.5849 9.01331 17.9574 9.01331 19.4124C9.01331 20.8674 9.35831 22.2399 9.97331 23.4549L12.9621 21.1336Z" fill="#FBBC05"/>
<path d="M18.0133 28.4124C20.4433 28.4124 22.487 27.6136 23.972 26.2336L21.0733 23.9836C20.267 24.5274 19.2283 24.8461 18.0133 24.8461C15.6658 24.8461 13.6745 23.2636 12.962 21.1299L9.96954 23.4511C11.4545 26.3949 14.4958 28.4124 18.0133 28.4124Z" fill="#34A853"/>
</g>
<defs>
<clipPath id="clip0_1_33">
<rect width="36" height="37" fill="white" transform="translate(0.0133057 0.912354)"/>
</clipPath>
</defs>
</svg>